<?xml version="1.0" standalone="no"?>
<!DOCTYPE svg PUBLIC "-//W3C//DTD SVG 20010904//EN"
 "http://www.w3.org/TR/2001/REC-SVG-20010904/DTD/svg10.dtd">
<svg version="1.0" xmlns="http://www.w3.org/2000/svg"
 width="30.000000pt" height="30.000000pt" viewBox="0 0 30.000000 30.000000"
 preserveAspectRatio="xMidYMid meet">

<g transform="translate(0.000000,30.000000) scale(0.100000,-0.100000)"
fill="#000000" stroke="none">
<path d="M140 266 c0 -23 -5 -25 -47 -28 l-48 -3 0 -100 0 -100 105 0 105 0 0
100 0 100 -47 3 c-43 3 -48 5 -48 28 0 13 -4 24 -10 24 -5 0 -10 -11 -10 -24z
m20 -87 c0 -54 2 -60 15 -49 28 23 29 0 2 -28 l-27 -27 -27 27 c-27 28 -26 51
2 28 13 -11 15 -5 15 49 0 34 4 61 10 61 6 0 10 -27 10 -61z"/>
</g>
</svg>
